<svg width="1717" height="589" viewBox="0 0 1717 589" fill="none" xmlns="http://www.w3.org/2000/svg">
<rect x="41.4155" y="0.741394" width="0.85345" height="587.688" fill="url(#paint0_linear_129_192)"/>
<rect x="99.0923" y="0.741394" width="0.85345" height="587.688" fill="url(#paint1_linear_129_192)"/>
<rect x="156.77" y="0.741394" width="0.85345" height="587.688" fill="url(#paint2_linear_129_192)"/>
<rect x="214.446" y="0.741394" width="0.85345" height="587.688" fill="url(#paint3_linear_129_192)"/>
<rect x="272.124" y="0.741394" width="0.85345" height="587.688" fill="url(#paint4_linear_129_192)"/>
<rect x="329.801" y="0.741394" width="0.85345" height="587.688" fill="url(#paint5_linear_129_192)"/>
<rect x="387.478" y="0.741394" width="0.85345" height="587.688" fill="url(#paint6_linear_129_192)"/>
<rect x="445.155" y="0.741394" width="0.85345" height="587.688" fill="url(#paint7_linear_129_192)"/>
<rect x="502.832" y="0.741394" width="0.85345" height="587.688" fill="url(#paint8_linear_129_192)"/>
<rect x="560.509" y="0.741394" width="0.85345" height="587.688" fill="url(#paint9_linear_129_192)"/>
<rect x="618.186" y="0.741394" width="0.85345" height="587.688" fill="url(#paint10_linear_129_192)"/>
<rect x="675.863" y="0.741394" width="0.85345" height="587.688" fill="url(#paint11_linear_129_192)"/>
<rect x="733.54" y="0.741394" width="0.85345" height="587.688" fill="url(#paint12_linear_129_192)"/>
<rect x="791.217" y="0.741394" width="0.85345" height="587.688" fill="url(#paint13_linear_129_192)"/>
<rect x="848.894" y="0.741394" width="0.85345" height="587.688" fill="url(#paint14_linear_129_192)"/>
<rect x="906.571" y="0.741394" width="0.85345" height="587.688" fill="url(#paint15_linear_129_192)"/>
<rect x="964.248" y="0.741394" width="0.85345" height="587.688" fill="url(#paint16_linear_129_192)"/>
<rect x="1021.93" y="0.741394" width="0.85345" height="587.688" fill="url(#paint17_linear_129_192)"/>
<rect x="1079.6" y="0.741394" width="0.85345" height="587.688" fill="url(#paint18_linear_129_192)"/>
<rect x="1137.28" y="0.741394" width="0.85345" height="587.688" fill="url(#paint19_linear_129_192)"/>
<rect x="1194.96" y="0.741394" width="0.85345" height="587.688" fill="url(#paint20_linear_129_192)"/>
<rect x="1252.63" y="0.741394" width="0.85345" height="587.688" fill="url(#paint21_linear_129_192)"/>
<rect x="1310.31" y="0.741394" width="0.85345" height="587.688" fill="url(#paint22_linear_129_192)"/>
<rect x="1367.99" y="0.741394" width="0.85345" height="587.688" fill="url(#paint23_linear_129_192)"/>
<rect x="1425.66" y="0.741394" width="0.85345" height="587.688" fill="url(#paint24_linear_129_192)"/>
<rect x="1483.34" y="0.741394" width="0.85345" height="587.688" fill="url(#paint25_linear_129_192)"/>
<rect x="1541.02" y="0.741394" width="0.85345" height="587.688" fill="url(#paint26_linear_129_192)"/>
<rect x="1598.7" y="0.741394" width="0.85345" height="587.688" fill="url(#paint27_linear_129_192)"/>
<rect x="1656.37" y="0.741394" width="0.85345" height="587.688" fill="url(#paint28_linear_129_192)"/>
<rect x="71.6494" y="0.741394" width="0.85345" height="587.688" fill="url(#paint29_linear_129_192)"/>
<rect x="129.326" y="0.741394" width="0.85345" height="587.688" fill="url(#paint30_linear_129_192)"/>
<rect x="187.003" y="0.741394" width="0.85345" height="587.688" fill="url(#paint31_linear_129_192)"/>
<rect x="244.68" y="0.741394" width="0.85345" height="587.688" fill="url(#paint32_linear_129_192)"/>
<rect x="302.357" y="0.741394" width="0.85345" height="587.688" fill="url(#paint33_linear_129_192)"/>
<rect x="360.035" y="0.741394" width="0.85345" height="587.688" fill="url(#paint34_linear_129_192)"/>
<rect x="417.711" y="0.741394" width="0.85345" height="587.688" fill="url(#paint35_linear_129_192)"/>
<rect x="475.389" y="0.741394" width="0.85345" height="587.688" fill="url(#paint36_linear_129_192)"/>
<rect x="533.065" y="0.741394" width="0.85345" height="587.688" fill="url(#paint37_linear_129_192)"/>
<rect x="590.743" y="0.741394" width="0.85345" height="587.688" fill="url(#paint38_linear_129_192)"/>
<rect x="648.419" y="0.741394" width="0.85345" height="587.688" fill="url(#paint39_linear_129_192)"/>
<rect x="706.097" y="0.741394" width="0.85345" height="587.688" fill="url(#paint40_linear_129_192)"/>
<rect x="763.774" y="0.741394" width="0.85345" height="587.688" fill="url(#paint41_linear_129_192)"/>
<rect x="821.451" y="0.741394" width="0.85345" height="587.688" fill="url(#paint42_linear_129_192)"/>
<rect x="879.128" y="0.741394" width="0.85345" height="587.688" fill="url(#paint43_linear_129_192)"/>
<rect x="936.805" y="0.741394" width="0.85345" height="587.688" fill="url(#paint44_linear_129_192)"/>
<rect x="994.482" y="0.741394" width="0.85345" height="587.688" fill="url(#paint45_linear_129_192)"/>
<rect x="1052.16" y="0.741394" width="0.85345" height="587.688" fill="url(#paint46_linear_129_192)"/>
<rect x="1109.84" y="0.741394" width="0.85345" height="587.688" fill="url(#paint47_linear_129_192)"/>
<rect x="1167.51" y="0.741394" width="0.85345" height="587.688" fill="url(#paint48_linear_129_192)"/>
<rect x="1225.19" y="0.741394" width="0.85345" height="587.688" fill="url(#paint49_linear_129_192)"/>
<rect x="1282.87" y="0.741394" width="0.85345" height="587.688" fill="url(#paint50_linear_129_192)"/>
<rect x="1340.54" y="0.741394" width="0.85345" height="587.688" fill="url(#paint51_linear_129_192)"/>
<rect x="1398.22" y="0.741394" width="0.85345" height="587.688" fill="url(#paint52_linear_129_192)"/>
<rect x="1455.9" y="0.741394" width="0.85345" height="587.688" fill="url(#paint53_linear_129_192)"/>
<rect x="1513.58" y="0.741394" width="0.85345" height="587.688" fill="url(#paint54_linear_129_192)"/>
<rect x="1571.25" y="0.741394" width="0.85345" height="587.688" fill="url(#paint55_linear_129_192)"/>
<rect x="1628.93" y="0.741394" width="0.85345" height="587.688" fill="url(#paint56_linear_129_192)"/>
<rect x="1686.61" y="0.741394" width="0.85345" height="587.688" fill="url(#paint57_linear_129_192)"/>
<rect x="0.203613" y="527.983" width="0.81005" height="1715.87" transform="rotate(-90 0.203613 527.983)" fill="#0F0E25"/>
<rect x="0.203613" y="473.239" width="0.81005" height="1715.87" transform="rotate(-90 0.203613 473.239)" fill="#0F0E26"/>
<rect x="0.203613" y="418.495" width="0.81005" height="1715.87" transform="rotate(-90 0.203613 418.495)" fill="#100F27"/>
<rect x="0.203613" y="363.751" width="0.81005" height="1715.87" transform="rotate(-90 0.203613 363.751)" fill="#14132A"/>
<rect x="0.203613" y="309.007" width="0.81005" height="1715.87" transform="rotate(-90 0.203613 309.007)" fill="#16152C"/>
<rect x="0.203613" y="254.263" width="0.81005" height="1715.87" transform="rotate(-90 0.203613 254.263)" fill="#14142B"/>
<rect x="0.203613" y="199.519" width="0.81005" height="1715.87" transform="rotate(-90 0.203613 199.519)" fill="#111028"/>
<rect x="0.203613" y="144.775" width="0.81005" height="1715.87" transform="rotate(-90 0.203613 144.775)" fill="#121129"/>
<rect x="0.203613" y="90.0305" width="0.81005" height="1715.87" transform="rotate(-90 0.203613 90.0305)" fill="#16152C"/>
<rect x="0.203613" y="35.2866" width="0.81005" height="1715.87" transform="rotate(-90 0.203613 35.2866)" fill="#1B1A30"/>
<rect x="0.203613" y="555.76" width="0.81005" height="1715.87" transform="rotate(-90 0.203613 555.76)" fill="#0C0B23"/>
<rect x="0.203613" y="501.016" width="0.81005" height="1715.87" transform="rotate(-90 0.203613 501.016)" fill="#0F0E26"/>
<rect x="0.203613" y="446.272" width="0.81005" height="1715.87" transform="rotate(-90 0.203613 446.272)" fill="#100F27"/>
<rect x="0.203613" y="391.528" width="0.81005" height="1715.87" transform="rotate(-90 0.203613 391.528)" fill="#13122A"/>
<rect x="0.203613" y="336.784" width="0.81005" height="1715.87" transform="rotate(-90 0.203613 336.784)" fill="#14132A"/>
<rect x="0.203613" y="282.04" width="0.81005" height="1715.87" transform="rotate(-90 0.203613 282.04)" fill="#13122A"/>
<rect x="0.203613" y="227.296" width="0.81005" height="1715.87" transform="rotate(-90 0.203613 227.296)" fill="#111028"/>
<rect x="0.203613" y="172.552" width="0.81005" height="1715.87" transform="rotate(-90 0.203613 172.552)" fill="#121129"/>
<rect x="0.203613" y="117.807" width="0.81005" height="1715.87" transform="rotate(-90 0.203613 117.807)" fill="#16152C"/>
<rect x="0.203613" y="63.0636" width="0.81005" height="1715.87" transform="rotate(-90 0.203613 63.0636)" fill="#17162D"/>
<defs>
<linearGradient id="paint0_linear_129_192" x1="41.8423" y1="0.741394" x2="41.8423" y2="588.43" gradientUnits="userSpaceOnUse">
<stop stop-color="white" stop-opacity="0.08"/>
<stop offset="1" stop-color="white" stop-opacity="0"/>
</linearGradient>
<linearGradient id="paint1_linear_129_192" x1="99.519" y1="0.741394" x2="99.519" y2="588.43" gradientUnits="userSpaceOnUse">
<stop stop-color="white" stop-opacity="0.08"/>
<stop offset="1" stop-color="white" stop-opacity="0"/>
</linearGradient>
<linearGradient id="paint2_linear_129_192" x1="157.196" y1="0.741394" x2="157.196" y2="588.43" gradientUnits="userSpaceOnUse">
<stop stop-color="white" stop-opacity="0.08"/>
<stop offset="1" stop-color="white" stop-opacity="0"/>
</linearGradient>
<linearGradient id="paint3_linear_129_192" x1="214.873" y1="0.741394" x2="214.873" y2="588.43" gradientUnits="userSpaceOnUse">
<stop stop-color="white" stop-opacity="0.08"/>
<stop offset="1" stop-color="white" stop-opacity="0"/>
</linearGradient>
<linearGradient id="paint4_linear_129_192" x1="272.55" y1="0.741394" x2="272.55" y2="588.43" gradientUnits="userSpaceOnUse">
<stop stop-color="white" stop-opacity="0.08"/>
<stop offset="1" stop-color="white" stop-opacity="0"/>
</linearGradient>
<linearGradient id="paint5_linear_129_192" x1="330.228" y1="0.741394" x2="330.228" y2="588.43" gradientUnits="userSpaceOnUse">
<stop stop-color="white" stop-opacity="0.08"/>
<stop offset="1" stop-color="white" stop-opacity="0"/>
</linearGradient>
<linearGradient id="paint6_linear_129_192" x1="387.904" y1="0.741394" x2="387.904" y2="588.43" gradientUnits="userSpaceOnUse">
<stop stop-color="white" stop-opacity="0.08"/>
<stop offset="1" stop-color="white" stop-opacity="0"/>
</linearGradient>
<linearGradient id="paint7_linear_129_192" x1="445.582" y1="0.741394" x2="445.582" y2="588.43" gradientUnits="userSpaceOnUse">
<stop stop-color="white" stop-opacity="0.08"/>
<stop offset="1" stop-color="white" stop-opacity="0"/>
</linearGradient>
<linearGradient id="paint8_linear_129_192" x1="503.258" y1="0.741394" x2="503.258" y2="588.43" gradientUnits="userSpaceOnUse">
<stop stop-color="white" stop-opacity="0.08"/>
<stop offset="1" stop-color="white" stop-opacity="0"/>
</linearGradient>
<linearGradient id="paint9_linear_129_192" x1="560.936" y1="0.741394" x2="560.936" y2="588.43" gradientUnits="userSpaceOnUse">
<stop stop-color="white" stop-opacity="0.08"/>
<stop offset="1" stop-color="white" stop-opacity="0"/>
</linearGradient>
<linearGradient id="paint10_linear_129_192" x1="618.612" y1="0.741394" x2="618.612" y2="588.43" gradientUnits="userSpaceOnUse">
<stop stop-color="white" stop-opacity="0.08"/>
<stop offset="1" stop-color="white" stop-opacity="0"/>
</linearGradient>
<linearGradient id="paint11_linear_129_192" x1="676.29" y1="0.741394" x2="676.29" y2="588.43" gradientUnits="userSpaceOnUse">
<stop stop-color="white" stop-opacity="0.08"/>
<stop offset="1" stop-color="white" stop-opacity="0"/>
</linearGradient>
<linearGradient id="paint12_linear_129_192" x1="733.967" y1="0.741394" x2="733.967" y2="588.43" gradientUnits="userSpaceOnUse">
<stop stop-color="white" stop-opacity="0.08"/>
<stop offset="1" stop-color="white" stop-opacity="0"/>
</linearGradient>
<linearGradient id="paint13_linear_129_192" x1="791.644" y1="0.741394" x2="791.644" y2="588.43" gradientUnits="userSpaceOnUse">
<stop stop-color="white" stop-opacity="0.08"/>
<stop offset="1" stop-color="white" stop-opacity="0"/>
</linearGradient>
<linearGradient id="paint14_linear_129_192" x1="849.321" y1="0.741394" x2="849.321" y2="588.43" gradientUnits="userSpaceOnUse">
<stop stop-color="white" stop-opacity="0.08"/>
<stop offset="1" stop-color="white" stop-opacity="0"/>
</linearGradient>
<linearGradient id="paint15_linear_129_192" x1="906.998" y1="0.741394" x2="906.998" y2="588.43" gradientUnits="userSpaceOnUse">
<stop stop-color="white" stop-opacity="0.08"/>
<stop offset="1" stop-color="white" stop-opacity="0"/>
</linearGradient>
<linearGradient id="paint16_linear_129_192" x1="964.675" y1="0.741394" x2="964.675" y2="588.43" gradientUnits="userSpaceOnUse">
<stop stop-color="white" stop-opacity="0.08"/>
<stop offset="1" stop-color="white" stop-opacity="0"/>
</linearGradient>
<linearGradient id="paint17_linear_129_192" x1="1022.35" y1="0.741394" x2="1022.35" y2="588.43" gradientUnits="userSpaceOnUse">
<stop stop-color="white" stop-opacity="0.08"/>
<stop offset="1" stop-color="white" stop-opacity="0"/>
</linearGradient>
<linearGradient id="paint18_linear_129_192" x1="1080.03" y1="0.741394" x2="1080.03" y2="588.43" gradientUnits="userSpaceOnUse">
<stop stop-color="white" stop-opacity="0.08"/>
<stop offset="1" stop-color="white" stop-opacity="0"/>
</linearGradient>
<linearGradient id="paint19_linear_129_192" x1="1137.71" y1="0.741394" x2="1137.71" y2="588.43" gradientUnits="userSpaceOnUse">
<stop stop-color="white" stop-opacity="0.08"/>
<stop offset="1" stop-color="white" stop-opacity="0"/>
</linearGradient>
<linearGradient id="paint20_linear_129_192" x1="1195.38" y1="0.741394" x2="1195.38" y2="588.43" gradientUnits="userSpaceOnUse">
<stop stop-color="white" stop-opacity="0.08"/>
<stop offset="1" stop-color="white" stop-opacity="0"/>
</linearGradient>
<linearGradient id="paint21_linear_129_192" x1="1253.06" y1="0.741394" x2="1253.06" y2="588.43" gradientUnits="userSpaceOnUse">
<stop stop-color="white" stop-opacity="0.08"/>
<stop offset="1" stop-color="white" stop-opacity="0"/>
</linearGradient>
<linearGradient id="paint22_linear_129_192" x1="1310.74" y1="0.741394" x2="1310.74" y2="588.43" gradientUnits="userSpaceOnUse">
<stop stop-color="white" stop-opacity="0.08"/>
<stop offset="1" stop-color="white" stop-opacity="0"/>
</linearGradient>
<linearGradient id="paint23_linear_129_192" x1="1368.41" y1="0.741394" x2="1368.41" y2="588.43" gradientUnits="userSpaceOnUse">
<stop stop-color="white" stop-opacity="0.08"/>
<stop offset="1" stop-color="white" stop-opacity="0"/>
</linearGradient>
<linearGradient id="paint24_linear_129_192" x1="1426.09" y1="0.741394" x2="1426.09" y2="588.43" gradientUnits="userSpaceOnUse">
<stop stop-color="white" stop-opacity="0.08"/>
<stop offset="1" stop-color="white" stop-opacity="0"/>
</linearGradient>
<linearGradient id="paint25_linear_129_192" x1="1483.77" y1="0.741394" x2="1483.77" y2="588.43" gradientUnits="userSpaceOnUse">
<stop stop-color="white" stop-opacity="0.08"/>
<stop offset="1" stop-color="white" stop-opacity="0"/>
</linearGradient>
<linearGradient id="paint26_linear_129_192" x1="1541.45" y1="0.741394" x2="1541.45" y2="588.43" gradientUnits="userSpaceOnUse">
<stop stop-color="white" stop-opacity="0.08"/>
<stop offset="1" stop-color="white" stop-opacity="0"/>
</linearGradient>
<linearGradient id="paint27_linear_129_192" x1="1599.12" y1="0.741394" x2="1599.12" y2="588.43" gradientUnits="userSpaceOnUse">
<stop stop-color="white" stop-opacity="0.08"/>
<stop offset="1" stop-color="white" stop-opacity="0"/>
</linearGradient>
<linearGradient id="paint28_linear_129_192" x1="1656.8" y1="0.741394" x2="1656.8" y2="588.43" gradientUnits="userSpaceOnUse">
<stop stop-color="white" stop-opacity="0.08"/>
<stop offset="1" stop-color="white" stop-opacity="0"/>
</linearGradient>
<linearGradient id="paint29_linear_129_192" x1="72.0761" y1="0.741394" x2="72.0761" y2="588.43" gradientUnits="userSpaceOnUse">
<stop stop-color="white" stop-opacity="0.08"/>
<stop offset="1" stop-color="white" stop-opacity="0"/>
</linearGradient>
<linearGradient id="paint30_linear_129_192" x1="129.753" y1="0.741394" x2="129.753" y2="588.43" gradientUnits="userSpaceOnUse">
<stop stop-color="white" stop-opacity="0.08"/>
<stop offset="1" stop-color="white" stop-opacity="0"/>
</linearGradient>
<linearGradient id="paint31_linear_129_192" x1="187.43" y1="0.741394" x2="187.43" y2="588.43" gradientUnits="userSpaceOnUse">
<stop stop-color="white" stop-opacity="0.08"/>
<stop offset="1" stop-color="white" stop-opacity="0"/>
</linearGradient>
<linearGradient id="paint32_linear_129_192" x1="245.107" y1="0.741394" x2="245.107" y2="588.43" gradientUnits="userSpaceOnUse">
<stop stop-color="white" stop-opacity="0.08"/>
<stop offset="1" stop-color="white" stop-opacity="0"/>
</linearGradient>
<linearGradient id="paint33_linear_129_192" x1="302.784" y1="0.741394" x2="302.784" y2="588.43" gradientUnits="userSpaceOnUse">
<stop stop-color="white" stop-opacity="0.08"/>
<stop offset="1" stop-color="white" stop-opacity="0"/>
</linearGradient>
<linearGradient id="paint34_linear_129_192" x1="360.461" y1="0.741394" x2="360.461" y2="588.43" gradientUnits="userSpaceOnUse">
<stop stop-color="white" stop-opacity="0.08"/>
<stop offset="1" stop-color="white" stop-opacity="0"/>
</linearGradient>
<linearGradient id="paint35_linear_129_192" x1="418.138" y1="0.741394" x2="418.138" y2="588.43" gradientUnits="userSpaceOnUse">
<stop stop-color="white" stop-opacity="0.08"/>
<stop offset="1" stop-color="white" stop-opacity="0"/>
</linearGradient>
<linearGradient id="paint36_linear_129_192" x1="475.815" y1="0.741394" x2="475.815" y2="588.43" gradientUnits="userSpaceOnUse">
<stop stop-color="white" stop-opacity="0.08"/>
<stop offset="1" stop-color="white" stop-opacity="0"/>
</linearGradient>
<linearGradient id="paint37_linear_129_192" x1="533.492" y1="0.741394" x2="533.492" y2="588.43" gradientUnits="userSpaceOnUse">
<stop stop-color="white" stop-opacity="0.08"/>
<stop offset="1" stop-color="white" stop-opacity="0"/>
</linearGradient>
<linearGradient id="paint38_linear_129_192" x1="591.169" y1="0.741394" x2="591.169" y2="588.43" gradientUnits="userSpaceOnUse">
<stop stop-color="white" stop-opacity="0.08"/>
<stop offset="1" stop-color="white" stop-opacity="0"/>
</linearGradient>
<linearGradient id="paint39_linear_129_192" x1="648.846" y1="0.741394" x2="648.846" y2="588.43" gradientUnits="userSpaceOnUse">
<stop stop-color="white" stop-opacity="0.08"/>
<stop offset="1" stop-color="white" stop-opacity="0"/>
</linearGradient>
<linearGradient id="paint40_linear_129_192" x1="706.523" y1="0.741394" x2="706.523" y2="588.43" gradientUnits="userSpaceOnUse">
<stop stop-color="white" stop-opacity="0.08"/>
<stop offset="1" stop-color="white" stop-opacity="0"/>
</linearGradient>
<linearGradient id="paint41_linear_129_192" x1="764.201" y1="0.741394" x2="764.201" y2="588.43" gradientUnits="userSpaceOnUse">
<stop stop-color="white" stop-opacity="0.08"/>
<stop offset="1" stop-color="white" stop-opacity="0"/>
</linearGradient>
<linearGradient id="paint42_linear_129_192" x1="821.877" y1="0.741394" x2="821.877" y2="588.43" gradientUnits="userSpaceOnUse">
<stop stop-color="white" stop-opacity="0.08"/>
<stop offset="1" stop-color="white" stop-opacity="0"/>
</linearGradient>
<linearGradient id="paint43_linear_129_192" x1="879.555" y1="0.741394" x2="879.555" y2="588.43" gradientUnits="userSpaceOnUse">
<stop stop-color="white" stop-opacity="0.08"/>
<stop offset="1" stop-color="white" stop-opacity="0"/>
</linearGradient>
<linearGradient id="paint44_linear_129_192" x1="937.232" y1="0.741394" x2="937.232" y2="588.43" gradientUnits="userSpaceOnUse">
<stop stop-color="white" stop-opacity="0.08"/>
<stop offset="1" stop-color="white" stop-opacity="0"/>
</linearGradient>
<linearGradient id="paint45_linear_129_192" x1="994.909" y1="0.741394" x2="994.909" y2="588.43" gradientUnits="userSpaceOnUse">
<stop stop-color="white" stop-opacity="0.08"/>
<stop offset="1" stop-color="white" stop-opacity="0"/>
</linearGradient>
<linearGradient id="paint46_linear_129_192" x1="1052.59" y1="0.741394" x2="1052.59" y2="588.43" gradientUnits="userSpaceOnUse">
<stop stop-color="white" stop-opacity="0.08"/>
<stop offset="1" stop-color="white" stop-opacity="0"/>
</linearGradient>
<linearGradient id="paint47_linear_129_192" x1="1110.26" y1="0.741394" x2="1110.26" y2="588.43" gradientUnits="userSpaceOnUse">
<stop stop-color="white" stop-opacity="0.08"/>
<stop offset="1" stop-color="white" stop-opacity="0"/>
</linearGradient>
<linearGradient id="paint48_linear_129_192" x1="1167.94" y1="0.741394" x2="1167.94" y2="588.43" gradientUnits="userSpaceOnUse">
<stop stop-color="white" stop-opacity="0.08"/>
<stop offset="1" stop-color="white" stop-opacity="0"/>
</linearGradient>
<linearGradient id="paint49_linear_129_192" x1="1225.62" y1="0.741394" x2="1225.62" y2="588.43" gradientUnits="userSpaceOnUse">
<stop stop-color="white" stop-opacity="0.08"/>
<stop offset="1" stop-color="white" stop-opacity="0"/>
</linearGradient>
<linearGradient id="paint50_linear_129_192" x1="1283.29" y1="0.741394" x2="1283.29" y2="588.43" gradientUnits="userSpaceOnUse">
<stop stop-color="white" stop-opacity="0.08"/>
<stop offset="1" stop-color="white" stop-opacity="0"/>
</linearGradient>
<linearGradient id="paint51_linear_129_192" x1="1340.97" y1="0.741394" x2="1340.97" y2="588.43" gradientUnits="userSpaceOnUse">
<stop stop-color="white" stop-opacity="0.08"/>
<stop offset="1" stop-color="white" stop-opacity="0"/>
</linearGradient>
<linearGradient id="paint52_linear_129_192" x1="1398.65" y1="0.741394" x2="1398.65" y2="588.43" gradientUnits="userSpaceOnUse">
<stop stop-color="white" stop-opacity="0.08"/>
<stop offset="1" stop-color="white" stop-opacity="0"/>
</linearGradient>
<linearGradient id="paint53_linear_129_192" x1="1456.33" y1="0.741394" x2="1456.33" y2="588.43" gradientUnits="userSpaceOnUse">
<stop stop-color="white" stop-opacity="0.08"/>
<stop offset="1" stop-color="white" stop-opacity="0"/>
</linearGradient>
<linearGradient id="paint54_linear_129_192" x1="1514" y1="0.741394" x2="1514" y2="588.43" gradientUnits="userSpaceOnUse">
<stop stop-color="white" stop-opacity="0.08"/>
<stop offset="1" stop-color="white" stop-opacity="0"/>
</linearGradient>
<linearGradient id="paint55_linear_129_192" x1="1571.68" y1="0.741394" x2="1571.68" y2="588.43" gradientUnits="userSpaceOnUse">
<stop stop-color="white" stop-opacity="0.08"/>
<stop offset="1" stop-color="white" stop-opacity="0"/>
</linearGradient>
<linearGradient id="paint56_linear_129_192" x1="1629.36" y1="0.741394" x2="1629.36" y2="588.43" gradientUnits="userSpaceOnUse">
<stop stop-color="white" stop-opacity="0.08"/>
<stop offset="1" stop-color="white" stop-opacity="0"/>
</linearGradient>
<linearGradient id="paint57_linear_129_192" x1="1687.03" y1="0.741394" x2="1687.03" y2="588.43" gradientUnits="userSpaceOnUse">
<stop stop-color="white" stop-opacity="0.08"/>
<stop offset="1" stop-color="white" stop-opacity="0"/>
</linearGradient>
</defs>
</svg>
